<?xml version="1.0" encoding="utf-8"?>
<!-- Generator: Adobe Illustrator 26.3.1, SVG Export Plug-In . SVG Version: 6.00 Build 0)  -->
<svg version="1.1" id="Capa_1" xmlns="http://www.w3.org/2000/svg" xmlns:xlink="http://www.w3.org/1999/xlink" x="0px" y="0px"
	 viewBox="0 0 72.34 67.23" style="enable-background:new 0 0 72.34 67.23;" xml:space="preserve">
<g>
	<path d="M65.55,40.62c0,6.39,0,12.78,0,19.17c-0.62,1.87-1.95,2.49-3.87,2.49c-16.66-0.04-33.32-0.02-49.98-0.02
		c-0.34,0-0.68,0.01-1-0.05c-1.56-0.29-2.54-1.53-2.54-3.21c0-16.96,0-33.92,0-50.88c0-0.09,0-0.19,0-0.28
		C8.23,6.73,8.73,5.87,9.68,5.3c0.3-0.18,0.63-0.29,0.95-0.44c6.39,0,12.78,0,19.17,0c1.51,0.69,1.88,1.49,1.41,3.09
		c-0.17,0.57-0.36,1.14-0.56,1.7c-0.63,1.75-0.93,3.56-0.96,5.43c-0.05,2.36,0.39,4.62,1.19,6.84c1.32,3.62,1.24,7.16-0.9,10.52
		c-0.41,0.64-0.72,1.35-1.02,2.05c-0.45,1.08-0.58,2.2-0.19,3.33c0.47,1.39,1.44,2.39,2.59,3.21c1.22,0.87,2.58,1.12,3.99,0.61
		c1.04-0.38,2.05-0.89,3.02-1.43c1.69-0.95,3.47-1.51,5.43-1.52c1.88,0,3.65,0.44,5.4,1.09c2.76,1.02,5.62,1.24,8.49,0.74
		c1.62-0.28,3.19-0.86,4.79-1.31C64.08,38.75,64.85,39.1,65.55,40.62z M24.56,14.07c1.69,0,3.07-1.36,3.08-3.05
		c0.01-1.7-1.41-3.11-3.11-3.09c-1.7,0.02-3.04,1.39-3.04,3.09C21.5,12.73,22.86,14.08,24.56,14.07z M14.3,53.04
		c-1.7,0-3.06,1.37-3.06,3.06c0,1.69,1.37,3.06,3.06,3.08c1.71,0.01,3.09-1.37,3.08-3.1C17.37,54.38,16.01,53.04,14.3,53.04z
		 M22.53,18.19c0.56-0.01,1.01-0.49,1-1.06c-0.02-0.57-0.48-1-1.06-0.98c-0.55,0.02-0.97,0.46-0.97,1.01
		C21.5,17.73,21.97,18.2,22.53,18.19z M16.35,49.97c0.01-0.57-0.45-1.04-1.01-1.04c-0.56,0-1.02,0.47-1.01,1.04
		c0.01,0.55,0.43,0.98,0.99,0.99C15.89,50.98,16.35,50.54,16.35,49.97z M56.31,53.05c-0.58,0.01-1.01,0.46-0.99,1.05
		c0.02,0.55,0.46,0.98,1,0.99c0.56,0,1.04-0.47,1.03-1.03C57.35,53.49,56.88,53.04,56.31,53.05z M54.28,44.83
		c0.57,0,1.02-0.47,1.01-1.04c-0.01-0.54-0.46-0.99-0.99-1.01c-0.55-0.01-1.04,0.47-1.05,1.02C53.25,44.35,53.72,44.83,54.28,44.83z
		 M60.43,43.8c0,0.55,0.47,1.03,1.03,1.03c0.54,0,0.99-0.44,1.01-0.98c0.02-0.56-0.44-1.05-1-1.06
		C60.93,42.77,60.43,43.25,60.43,43.8z"/>
	<path d="M40.22,4.86c0.57,0.29,0.75,0.75,0.75,1.37c-0.01,10.06-0.01,20.13,0,30.19c0,0.38-0.09,0.56-0.48,0.66
		c-0.52,0.13-1.01,0.34-1.56,0.54c-0.01-0.24-0.03-0.42-0.03-0.6c0-10.25,0-20.5-0.01-30.75c0-0.64,0.15-1.14,0.77-1.41
		C39.85,4.86,40.04,4.86,40.22,4.86z"/>
	<path d="M60.73,4.86c0.55,0.3,0.72,0.76,0.72,1.39c-0.01,10.19-0.01,20.39,0,30.58c0,0.39-0.08,0.62-0.49,0.72
		c-0.5,0.12-0.99,0.32-1.54,0.5c-0.01-0.24-0.03-0.44-0.03-0.63c0-10.36,0-20.72-0.01-31.08c0-0.63,0.15-1.12,0.67-1.48
		C60.29,4.86,60.51,4.86,60.73,4.86z"/>
	<path d="M65.55,30.76c-0.41,0.9-1.19,0.79-2,0.74c0-0.67,0-1.31,0-1.95c0.92-0.28,1.53-0.09,2,0.65
		C65.55,30.38,65.55,30.57,65.55,30.76z"/>
	<path d="M50.53,4.86c0.79,0.47,0.72,1.21,0.64,2c-0.65,0-1.29,0-1.97,0c-0.07-0.77-0.2-1.54,0.66-2
		C50.09,4.86,50.31,4.86,50.53,4.86z"/>
	<path d="M65.55,10.36c-0.49,0.75-1.21,0.73-2,0.62c0-0.65,0-1.29,0-1.97c0.78-0.06,1.56-0.2,2,0.68
		C65.55,9.91,65.55,10.13,65.55,10.36z"/>
	<path d="M65.55,20.56c-0.44,0.83-1.21,0.72-2,0.66c0-0.65,0-1.29,0-1.96c0.76-0.1,1.51-0.17,2,0.63
		C65.55,20.11,65.55,20.33,65.55,20.56z"/>
	<path d="M43.06,29.49c4.76,0,9.51,0,14.28,0c0,0.67,0,1.3,0,1.98c-4.75,0-9.49,0-14.28,0C43.06,30.83,43.06,30.17,43.06,29.49z"/>
	<path d="M43.04,10.99c0-0.67,0-1.3,0-1.98c4.77,0,9.51,0,14.29,0c0,0.66,0,1.3,0,1.98C52.57,10.99,47.83,10.99,43.04,10.99z"/>
	<path d="M57.33,19.25c0,0.68,0,1.31,0,1.97c-4.77,0-9.5,0-14.28,0c0-0.65,0-1.29,0-1.97C47.8,19.25,52.55,19.25,57.33,19.25z"/>
	<path d="M51.17,38.26c-0.6-0.19-1.18-0.37-1.75-0.58c-0.11-0.04-0.24-0.24-0.24-0.37c-0.02-1.23-0.01-2.45-0.01-3.72
		c0.68,0,1.32,0,2,0C51.17,35.13,51.17,36.66,51.17,38.26z"/>
	<path d="M36.84,19.23c0,0.68,0,1.31,0,2.02c-0.94,0-1.86,0-2.78,0c-1.29,0-1.29,0-1.67-1.24c-0.07-0.25-0.13-0.5-0.21-0.77
		C33.74,19.23,35.26,19.23,36.84,19.23z"/>
	<path d="M36.84,8.98c0,0.72,0,1.35,0,2.01c-1.48,0-2.95,0-4.47,0c0.2-0.6,0.38-1.18,0.6-1.75c0.04-0.12,0.24-0.25,0.36-0.25
		C34.48,8.97,35.64,8.98,36.84,8.98z"/>
	<path d="M51.16,17.14c-0.64,0-1.27,0-1.95,0c0-1.34,0-2.66,0-4.04c0.62,0,1.26,0,1.95,0C51.16,14.43,51.16,15.77,51.16,17.14z"/>
	<path d="M51.17,27.38c-0.67,0-1.3,0-1.96,0c0-1.34,0-2.65,0-4.01c0.64,0,1.28,0,1.96,0C51.17,24.68,51.17,26.01,51.17,27.38z"/>
	<path d="M32.81,31.48c0.21-0.64,0.41-1.25,0.63-1.85c0.03-0.08,0.2-0.17,0.31-0.17c1.02-0.01,2.04-0.01,3.08-0.01
		c0,0.7,0,1.34,0,2.03C35.5,31.48,34.18,31.48,32.81,31.48z"/>
	<path d="M24.57,12.03c-0.56,0-1.03-0.47-1.03-1.03c0-0.56,0.48-1.01,1.05-1c0.56,0.01,0.98,0.43,0.99,0.99
		C25.58,11.57,25.13,12.03,24.57,12.03z"/>
	<path d="M14.29,57.11c-0.58-0.01-1-0.46-0.99-1.05c0.02-0.55,0.46-0.98,1-0.98c0.56,0,1.03,0.47,1.02,1.03
		C15.33,56.68,14.86,57.12,14.29,57.11z"/>
</g>
</svg>
