<?xml version="1.0" encoding="utf-8"?>
<!-- Generator: Adobe Illustrator 26.3.1, SVG Export Plug-In . SVG Version: 6.00 Build 0)  -->
<svg version="1.1" id="Capa_1" xmlns="http://www.w3.org/2000/svg" xmlns:xlink="http://www.w3.org/1999/xlink" x="0px" y="0px"
	 viewBox="0 0 72.34 67.23" style="enable-background:new 0 0 72.34 67.23;" xml:space="preserve">
<g>
	<path d="M4.17,55.76c0.5-1.08,1.35-1.43,2.52-1.39c1.68,0.06,3.36,0.02,5.1,0.02c0-0.3,0-0.55,0-0.79c0-6.26,0-12.52-0.01-18.78
		c0-0.44,0.12-0.71,0.47-0.99c7.79-6.01,15.56-12.02,23.33-18.05c0.43-0.34,0.69-0.31,1.1,0.01c7.8,6.05,15.61,12.09,23.43,18.13
		c0.35,0.27,0.48,0.54,0.48,0.98c-0.01,6.22-0.01,12.43-0.01,18.65c0,0.25,0,0.5,0,0.83c0.41,0,0.8,0,1.19,0
		c1.41,0,2.83-0.01,4.24,0c1.21,0.01,2.05,0.78,2.05,1.87c0,1.09-0.84,1.87-2.06,1.87c-5.45,0.01-10.9,0-16.35,0
		c-0.12,0-0.24-0.01-0.44-0.02c0-0.27,0-0.51,0-0.75c0-6.53,0-13.06,0-19.59c0-1.68-0.66-2.35-2.33-2.35c-7.2,0-14.39,0-21.59,0
		c-1.6,0-2.29,0.68-2.29,2.27c0,6.55,0,13.1,0,19.65c0,0.24,0,0.49,0,0.79c-0.28,0-0.51,0-0.73,0c-5.2,0-10.4-0.02-15.6,0.02
		c-1.16,0.01-2.02-0.31-2.52-1.39C4.17,56.42,4.17,56.09,4.17,55.76z M36.15,31.67c3.06-0.03,5.6-2.58,5.58-5.62
		c-0.01-3.06-2.56-5.59-5.61-5.6c-3.07,0-5.66,2.6-5.61,5.65C30.55,29.18,33.11,31.7,36.15,31.67z"/>
	<path d="M4.17,26.31c0.51-0.53,0.95-1.14,1.53-1.58c9.63-7.46,19.28-14.9,28.92-22.34c1.12-0.87,1.86-0.87,2.97-0.02
		c9.78,7.54,19.55,15.09,29.33,22.63c1.4,1.08,1.51,1.94,0.44,3.37c-0.57,0.77-1.14,1.53-1.72,2.29c-0.92,1.2-1.9,1.33-3.1,0.41
		c-8.09-6.26-16.18-12.52-24.27-18.77c-0.56-0.43-1.14-0.84-1.67-1.31c-0.34-0.3-0.58-0.29-0.95-0.01
		c-3.84,2.99-7.69,5.96-11.53,8.94c-4.8,3.71-9.6,7.43-14.4,11.14c-1.2,0.93-2.2,0.81-3.1-0.4c-0.83-1.11-1.63-2.24-2.44-3.37
		C4.17,26.98,4.17,26.65,4.17,26.31z"/>
	<path d="M20.64,65.62c-0.15-0.09-0.31-0.18-0.46-0.28c-1.1-0.68-1.22-2.59-0.21-3.38c0.11-0.09,0.31-0.08,0.48-0.08
		c10.45,0,20.89,0,31.34-0.01c0.38,0,0.55,0.14,0.7,0.46c0.27,0.59,0.59,1.14,0.43,1.83c-0.17,0.74-0.72,1.12-1.32,1.46
		C41.28,65.62,30.96,65.62,20.64,65.62z"/>
	<path d="M34.2,58.1c-2.49,0-4.94,0-7.41,0c0-6.3,0-12.57,0-18.89c2.45,0,4.91,0,7.41,0C34.2,45.49,34.2,51.77,34.2,58.1z"/>
	<path d="M38.03,39.19c2.49,0,4.94,0,7.41,0c0,6.3,0,12.57,0,18.89c-2.45,0-4.91,0-7.41,0C38.03,51.81,38.03,45.53,38.03,39.19z"/>
	<path d="M11.79,15.38c0-2.81-0.02-5.49,0.01-8.16c0.01-0.97,0.81-1.7,1.8-1.73c1.29-0.03,2.58-0.03,3.86,0
		c1.01,0.03,1.75,0.79,1.79,1.8c0.03,0.64,0.03,1.29,0,1.93c-0.01,0.18-0.1,0.41-0.24,0.52C16.66,11.6,14.28,13.45,11.79,15.38z"/>
	<path d="M36.1,27.93c-1.02-0.01-1.86-0.86-1.85-1.88c0.01-1.02,0.86-1.86,1.88-1.85c1.02,0.01,1.86,0.86,1.85,1.88
		C37.98,27.1,37.12,27.94,36.1,27.93z"/>
</g>
</svg>
