<?xml version="1.0" encoding="utf-8"?>
<!-- Generator: Adobe Illustrator 26.3.1, SVG Export Plug-In . SVG Version: 6.00 Build 0)  -->
<svg version="1.1" id="Capa_1" xmlns="http://www.w3.org/2000/svg" xmlns:xlink="http://www.w3.org/1999/xlink" x="0px" y="0px"
	 viewBox="0 0 362.84 180.76" style="enable-background:new 0 0 362.84 180.76;" xml:space="preserve">
<style type="text/css">
	.st0{fill:#414141;}
	.st1{fill:#FFC857;}
	.st2{fill:#353644;}
	.st3{fill:#F9E0AC;}
	.st4{fill:#9AABBE;}
	.st5{fill:#E5E5E5;}
</style>
<g>
	<g>
		<g>
			<path class="st0" d="M141.78,75.3l7.77-41.12h10.36l7.67,41.12h-8.38l-1.37-8.68h-6.04l-1.42,8.68H141.78z M152.6,61.19h4.37
				l-2.18-16.04L152.6,61.19z"/>
			<path class="st0" d="M182.86,75.91c-3.11,0-5.58-0.57-7.39-1.7c-1.81-1.13-3.09-2.72-3.83-4.77c-0.74-2.05-1.12-4.46-1.12-7.23
				V47.38c0-2.84,0.37-5.29,1.12-7.34c0.74-2.05,2.02-3.63,3.83-4.75c1.81-1.12,4.27-1.68,7.39-1.68c3.05,0,5.42,0.5,7.13,1.5
				c1.71,1,2.92,2.39,3.63,4.19c0.71,1.79,1.07,3.86,1.07,6.19v3.55h-8.88v-4.11c0-0.81-0.04-1.59-0.13-2.34
				c-0.08-0.74-0.33-1.36-0.74-1.85c-0.41-0.49-1.1-0.74-2.08-0.74c-0.95,0-1.65,0.25-2.11,0.76c-0.46,0.51-0.74,1.14-0.86,1.9
				c-0.12,0.76-0.18,1.57-0.18,2.41v19.34c0,0.91,0.08,1.75,0.23,2.51s0.46,1.37,0.91,1.83c0.46,0.46,1.12,0.69,2.01,0.69
				c0.95,0,1.62-0.25,2.03-0.74c0.41-0.49,0.66-1.12,0.76-1.9c0.1-0.78,0.15-1.57,0.15-2.39v-4.32h8.88v3.55
				c0,2.34-0.35,4.43-1.04,6.27c-0.69,1.85-1.9,3.3-3.6,4.37C188.33,75.38,185.93,75.91,182.86,75.91z"/>
			<path class="st0" d="M203.36,75.3V40.93h-6.19v-6.75h21.47v6.75h-6.14V75.3H203.36z"/>
			<path class="st0" d="M222.3,75.3V34.18h9.09V75.3H222.3z"/>
			<path class="st0" d="M249.31,75.91c-3.08,0-5.52-0.54-7.31-1.62c-1.79-1.08-3.08-2.64-3.86-4.67c-0.78-2.03-1.17-4.45-1.17-7.26
				V47.07c0-2.84,0.39-5.26,1.17-7.26c0.78-2,2.06-3.53,3.86-4.59c1.79-1.07,4.23-1.6,7.31-1.6c3.11,0,5.58,0.53,7.39,1.6
				c1.81,1.07,3.1,2.6,3.88,4.59c0.78,2,1.17,4.42,1.17,7.26v15.28c0,2.81-0.39,5.23-1.17,7.26c-0.78,2.03-2.07,3.59-3.88,4.67
				C254.88,75.37,252.42,75.91,249.31,75.91z M249.31,69.46c0.95,0,1.64-0.24,2.08-0.71c0.44-0.47,0.73-1.08,0.86-1.83
				c0.13-0.74,0.2-1.51,0.2-2.28v-19.8c0-0.81-0.07-1.58-0.2-2.31c-0.14-0.73-0.42-1.33-0.86-1.8c-0.44-0.47-1.13-0.71-2.08-0.71
				c-0.88,0-1.54,0.24-1.98,0.71c-0.44,0.47-0.73,1.07-0.86,1.8c-0.14,0.73-0.2,1.5-0.2,2.31v19.8c0,0.78,0.06,1.54,0.18,2.28
				c0.12,0.74,0.39,1.35,0.81,1.83C247.67,69.22,248.36,69.46,249.31,69.46z"/>
			<path class="st0" d="M267.28,75.3V34.18h6.4l8.43,19.8v-19.8h7.51V75.3h-6.14l-8.43-21.32V75.3H267.28z"/>
			<path class="st0" d="M143.76,124.27V83.15h13.81c2.47,0,4.5,0.47,6.09,1.4c1.59,0.93,2.77,2.28,3.55,4.06
				c0.78,1.78,1.17,3.93,1.17,6.47c0,3.18-0.53,5.61-1.57,7.29c-1.05,1.68-2.47,2.84-4.26,3.48c-1.79,0.64-3.81,0.96-6.04,0.96
				h-3.66v17.46H143.76z M152.85,100.46h3.05c1.12,0,1.96-0.2,2.54-0.61c0.58-0.41,0.96-1.02,1.14-1.83
				c0.19-0.81,0.28-1.84,0.28-3.1c0-1.05-0.08-1.97-0.23-2.77c-0.15-0.79-0.52-1.43-1.09-1.9c-0.58-0.47-1.47-0.71-2.69-0.71h-3
				V100.46z"/>
			<path class="st0" d="M168.39,124.27l7.77-41.12h10.36l7.67,41.12h-8.38l-1.37-8.68h-6.04l-1.42,8.68H168.39z M179.2,110.16h4.37
				l-2.18-16.04L179.2,110.16z"/>
			<path class="st0" d="M197.98,124.27V83.15h9.09v41.12H197.98z"/>
			<path class="st0" d="M213.21,124.27V83.15h6.4l8.43,19.8v-19.8h7.51v41.12h-6.14l-8.43-21.32v21.32H213.21z"/>
			<path class="st0" d="M245.4,124.27V89.9h-6.19v-6.75h21.47v6.75h-6.14v34.37H245.4z"/>
			<path class="st0" d="M264.33,124.27V83.15h9.09v41.12H264.33z"/>
			<path class="st0" d="M279.56,124.27V83.15h6.4l8.43,19.8v-19.8h7.51v41.12h-6.14l-8.43-21.32v21.32H279.56z"/>
			<path class="st0" d="M318.76,124.88c-2.84,0-5.09-0.59-6.73-1.78c-1.64-1.18-2.81-2.85-3.5-5c-0.69-2.15-1.04-4.63-1.04-7.44
				V96.86c0-2.91,0.37-5.43,1.12-7.56c0.74-2.13,2.02-3.78,3.83-4.95c1.81-1.17,4.27-1.75,7.39-1.75c3.05,0,5.44,0.51,7.18,1.52
				c1.74,1.02,2.99,2.42,3.73,4.21c0.74,1.79,1.12,3.89,1.12,6.3v2.64h-8.88v-3.35c0-0.88-0.06-1.69-0.18-2.44
				c-0.12-0.74-0.39-1.35-0.81-1.8c-0.42-0.46-1.11-0.69-2.06-0.69c-0.98,0-1.69,0.26-2.13,0.79c-0.44,0.53-0.72,1.18-0.84,1.95
				c-0.12,0.78-0.18,1.59-0.18,2.44v19.04c0,0.91,0.09,1.77,0.28,2.56c0.19,0.8,0.52,1.44,1.02,1.93c0.49,0.49,1.19,0.74,2.11,0.74
				c0.95,0,1.68-0.25,2.18-0.76c0.51-0.51,0.86-1.17,1.07-1.98c0.2-0.81,0.3-1.68,0.3-2.59v-4.82h-3.71v-5.33h11.88v21.32h-5.99
				l-0.51-3.4c-0.54,1.15-1.34,2.11-2.39,2.87C321.97,124.5,320.55,124.88,318.76,124.88z"/>
		</g>
		<g>
			<path class="st0" d="M146.68,149.92c-1.17,0-2.18-0.22-3.02-0.65c-0.84-0.43-1.59-1.07-2.24-1.89l1.39-1.39
				c0.48,0.67,1.03,1.17,1.65,1.51c0.62,0.34,1.39,0.51,2.31,0.51c0.9,0,1.62-0.2,2.16-0.59c0.54-0.39,0.82-0.93,0.82-1.61
				c0-0.57-0.13-1.02-0.4-1.37c-0.27-0.35-0.62-0.63-1.05-0.86c-0.43-0.22-0.91-0.42-1.44-0.6s-1.04-0.37-1.57-0.58
				c-0.52-0.21-1-0.47-1.45-0.79c-0.44-0.32-0.79-0.73-1.05-1.23c-0.26-0.5-0.39-1.14-0.39-1.92c0-0.86,0.21-1.58,0.62-2.19
				c0.41-0.6,0.98-1.07,1.7-1.39c0.72-0.33,1.53-0.49,2.42-0.49c0.99,0,1.87,0.19,2.65,0.58c0.78,0.38,1.42,0.89,1.91,1.51
				l-1.39,1.39c-0.45-0.52-0.93-0.91-1.45-1.17c-0.51-0.26-1.11-0.39-1.77-0.39c-0.81,0-1.46,0.18-1.94,0.53
				c-0.48,0.36-0.72,0.85-0.72,1.49c0,0.51,0.13,0.92,0.4,1.23c0.27,0.31,0.62,0.58,1.05,0.79c0.43,0.22,0.92,0.42,1.45,0.6
				c0.53,0.18,1.05,0.38,1.58,0.6c0.52,0.22,1,0.49,1.44,0.83c0.43,0.33,0.79,0.76,1.05,1.29c0.27,0.53,0.4,1.19,0.4,1.99
				c0,1.33-0.46,2.38-1.38,3.13C149.51,149.55,148.26,149.92,146.68,149.92z"/>
			<path class="st0" d="M168.05,149.7v-15.09h2.04v15.09H168.05z M169.45,136.48v-1.87h8.55v1.87H169.45z M169.45,142.9v-1.81h7.94
				v1.81H169.45z M169.45,149.7v-1.87h8.66v1.87H169.45z"/>
			<path class="st0" d="M194.37,149.7v-15.09h2.04v15.09H194.37z M195.74,143.14v-1.72h4.09c0.88,0,1.56-0.22,2.03-0.67
				c0.47-0.45,0.71-1.06,0.71-1.83c0-0.72-0.24-1.33-0.71-1.81c-0.47-0.48-1.14-0.72-2.01-0.72h-4.11v-1.78h4.18
				c0.96,0,1.79,0.18,2.5,0.55c0.71,0.37,1.26,0.87,1.64,1.51c0.38,0.64,0.58,1.37,0.58,2.2c0,0.86-0.19,1.6-0.58,2.24
				c-0.38,0.64-0.93,1.13-1.64,1.49c-0.71,0.36-1.54,0.53-2.5,0.53H195.74z M203.07,149.7l-5.48-6.76l1.94-0.67l6.13,7.44H203.07z"
				/>
			<path class="st0" d="M225.62,149.7l-6.07-15.09h2.24l4.98,12.77h-0.8l5.02-12.77h2.2l-6.09,15.09H225.62z"/>
			<path class="st0" d="M249.13,149.7v-15.09h2.04v15.09H249.13z"/>
			<path class="st0" d="M275.07,149.92c-1.09,0-2.1-0.2-3.02-0.6c-0.93-0.4-1.74-0.95-2.42-1.66c-0.69-0.71-1.22-1.54-1.6-2.48
				c-0.38-0.94-0.57-1.95-0.57-3.02c0-1.09,0.19-2.1,0.57-3.04c0.38-0.94,0.91-1.76,1.59-2.47c0.68-0.7,1.49-1.25,2.41-1.65
				c0.93-0.4,1.93-0.6,3-0.6c1.2,0,2.25,0.2,3.15,0.61c0.9,0.41,1.7,0.96,2.39,1.65l-1.41,1.41c-0.48-0.54-1.07-0.96-1.76-1.26
				c-0.7-0.3-1.49-0.46-2.37-0.46c-0.78,0-1.51,0.14-2.17,0.42c-0.67,0.28-1.25,0.69-1.74,1.21c-0.49,0.52-0.87,1.14-1.14,1.85
				c-0.27,0.71-0.4,1.49-0.4,2.33c0,0.84,0.13,1.62,0.4,2.33c0.27,0.71,0.65,1.33,1.14,1.85c0.49,0.52,1.07,0.92,1.74,1.21
				c0.67,0.28,1.4,0.42,2.2,0.42c0.94,0,1.76-0.16,2.46-0.47c0.7-0.31,1.28-0.74,1.76-1.27l1.41,1.41c-0.7,0.71-1.51,1.27-2.45,1.67
				C277.3,149.72,276.25,149.92,275.07,149.92z"/>
			<path class="st0" d="M296.67,149.7v-15.09h2.04v15.09H296.67z M298.06,136.48v-1.87h8.55v1.87H298.06z M298.06,142.9v-1.81H306
				v1.81H298.06z M298.06,149.7v-1.87h8.66v1.87H298.06z"/>
			<path class="st0" d="M326.77,149.92c-1.17,0-2.18-0.22-3.02-0.65c-0.84-0.43-1.59-1.07-2.24-1.89l1.39-1.39
				c0.48,0.67,1.03,1.17,1.65,1.51c0.62,0.34,1.39,0.51,2.31,0.51c0.9,0,1.62-0.2,2.16-0.59c0.54-0.39,0.82-0.93,0.82-1.61
				c0-0.57-0.13-1.02-0.4-1.37c-0.27-0.35-0.62-0.63-1.05-0.86c-0.43-0.22-0.91-0.42-1.44-0.6c-0.52-0.17-1.04-0.37-1.57-0.58
				c-0.52-0.21-1-0.47-1.45-0.79c-0.44-0.32-0.79-0.73-1.05-1.23c-0.26-0.5-0.39-1.14-0.39-1.92c0-0.86,0.21-1.58,0.62-2.19
				c0.41-0.6,0.98-1.07,1.7-1.39c0.72-0.33,1.53-0.49,2.42-0.49c0.99,0,1.87,0.19,2.65,0.58c0.78,0.38,1.42,0.89,1.91,1.51
				l-1.39,1.39c-0.45-0.52-0.93-0.91-1.45-1.17c-0.51-0.26-1.11-0.39-1.77-0.39c-0.81,0-1.46,0.18-1.94,0.53
				c-0.48,0.36-0.72,0.85-0.72,1.49c0,0.51,0.13,0.92,0.4,1.23c0.27,0.31,0.62,0.58,1.05,0.79c0.43,0.22,0.92,0.42,1.45,0.6
				c0.53,0.18,1.05,0.38,1.58,0.6c0.52,0.22,1,0.49,1.44,0.83c0.43,0.33,0.79,0.76,1.05,1.29c0.27,0.53,0.4,1.19,0.4,1.99
				c0,1.33-0.46,2.38-1.38,3.13C329.6,149.55,328.35,149.92,326.77,149.92z"/>
		</g>
	</g>
	<g>
		<path class="st1" d="M102.59,115.32c1.01,3.24,3.2,5.76,5.08,8.48c1.43,2.07,2.11,4.3,1.63,6.83c-1.19,6.3-7.99,9.34-13.44,5.91
			c-5.81-3.65-11.56-7.41-17.34-11.12c-9.94-6.39-19.87-12.77-29.81-19.16c-0.34-0.22-0.69-0.43-1.03-0.65
			c0.8-1.85,2.07-3.42,3.16-5.09c7.12-10.88,14.17-21.81,21.34-32.66c0.35-0.53,0.66-1.48,1.29-1.31c0.78,0.21,0.45,1.2,0.45,1.85
			c0.03,3.11,0.05,6.22,0.01,9.32c-0.09,6.64,2.63,11.94,7.63,16.16c0.78,0.65,1.09,1.29,0.93,2.31c-0.4,2.5,0.42,4.61,2.42,6.17
			c4.58,3.57,9.42,6.79,14.13,10.19C100.25,113.42,101.69,114.04,102.59,115.32z"/>
		<path class="st2" d="M102.59,115.32c-6.08-4.13-12.13-8.33-17.97-12.8c-2.07-1.59-2.88-3.81-2.43-6.41
			c0.14-0.83,0.02-1.34-0.72-1.94c-4.96-3.98-7.69-9.15-7.85-15.55c-0.1-3.96-0.02-7.92-0.02-12.01c-0.58,0.27-0.73,0.76-0.98,1.13
			C64.6,79.99,56.6,92.25,48.6,104.49c-0.26,0.4-0.42,0.9-0.92,1.11c-5.97-3.76-11.84-7.67-17.85-11.38
			c-3.27-2.02-5.82-4.74-6.85-8.59c-0.53-1.98-0.16-3.72,1.53-5.04c1.31-1.35,2.94-1,4.5-0.78c1.51,0.22,2.89,0.86,4.23,1.59
			c2.91,1.79,5.34,4.04,6.83,7.19c0.69,1.46,1.13,2.98,0.86,4.64c5.84-7.1,11.69-14.15,17.52-21.23c4.73-5.75,9.5-11.46,14.2-17.23
			c1.16-1.43,2.32-2.86,3.54-4.23c1.08-1.21,1.53-2.58,1.23-4.19c-0.07-0.36-0.17-0.73,0.13-1.05c1.42,0.1,2.35,1.12,3.45,1.83
			c0.35,0.47,0.26,1,0.22,1.53c-0.2,3.14-0.41,6.27-0.63,9.4c-0.21,3.09-0.45,6.19-0.63,9.28c-0.21,3.79-0.77,7.57-0.56,11.37
			c0.23,4.14,2.1,7.49,5.29,10.12c0.98,0.81,2.1,1.41,3.09,2.2c0.36,0.34,0.35,0.81,0.4,1.25c0.23,1.95,1.14,3.44,2.82,4.5
			c3.59,2.28,7.24,4.46,10.81,6.76c0.41,0.26,0.9,0.43,1.01,0.99C102.32,108.13,101.83,111.71,102.59,115.32z"/>
		<path class="st3" d="M33.32,81.77c-1.6-0.79-3.21-1.55-5.01-1.76c-1.31-0.15-2.59,0-3.79,0.58c1.81-2.61,3.97-4.96,5.98-7.41
			c4.44-5.43,8.93-10.82,13.4-16.23c4.49-5.44,8.99-10.88,13.48-16.32c0.78-0.94,1.67-1.82,2.32-2.84c1.97-3.15,4.99-3.08,8.11-1.96
			c0.8,0.29,1.58,0.67,2.36,1c0.6,0.13,1.17,0.32,1.46,0.94c0.41,2.61-0.27,4.88-1.9,6.98c-5.44,7-11,13.92-16.7,20.71
			c-2.94,3.5-5.87,7.02-9.14,10.23c-2.48,2.44-5.26,4.4-8.43,5.81C34.76,81.79,34.07,82.04,33.32,81.77z"/>
		<path class="st1" d="M85.9,50.52c4.25,2.66,8.75,4.97,12.66,8.11c5.86,4.71,8.16,11.02,7.32,18.47
			c-0.52,4.62-1.04,9.23-1.57,13.85c-0.05,0.4-0.13,0.8-0.19,1.2c-0.54,0.19-0.95-0.12-1.35-0.38c-1.91-1.23-3.89-2.35-5.79-3.61
			c-1.65-1.09-3.37-1.56-5.32-0.95c-0.43,0.13-0.87,0.21-1.32,0.06c-3.67-1.81-6.17-4.5-6.66-8.74c-0.09-0.74,0.02-1.46,0.06-2.19
			c0.15-2.85,0.37-5.69,0.57-8.54c0.31-4.43,0.52-8.87,0.93-13.29c0.07-0.73,0.03-1.47,0.07-2.2C85.34,51.67,85.33,51,85.9,50.52z"
			/>
		<path class="st4" d="M90.6,87.19c2.7-1.13,5.05-0.43,7.36,1.19c1.97,1.38,4.1,2.52,6.17,3.77c3.72,2.36,7.44,4.73,11.17,7.07
			c4.71,2.95,9.43,5.87,14.14,8.81c0.17,0.1,0.3,0.26,0.45,0.4c-0.23,0.32-0.57,0.23-0.89,0.24c-3.81,0.15-6.55,4.07-5.37,7.68
			c0.12,0.37,0.37,0.74,0.15,1.16c-2.79-1.7-5.58-3.39-8.36-5.11c-4.2-2.61-8.39-5.24-12.58-7.86c-3.7-2.31-7.36-4.7-11.12-6.9
			c-2.48-1.45-3.91-3.38-3.89-6.29C87.98,89.46,88.85,88.03,90.6,87.19z"/>
		<path class="st5" d="M90.6,87.19c-1.36,1.1-2.24,2.53-2.79,4.17c-4.1-2.3-7.24-5.4-8.43-10.13c-0.49-1.93-0.46-3.89-0.32-5.84
			c0.6-9.04,1.23-18.08,1.85-27.11c0.03-0.41,0.09-0.81-0.22-1.15c-0.21-1.39,0.24-2.74,0.24-4.12c0-1.65-0.32-3.15-1.95-3.87
			c-1.67-0.74-3.17-0.25-4.42,1.04c-0.35,0.25-0.65,0.07-0.88-0.16c-0.74-0.76-1.65-1.34-2.26-2.23c-0.42-0.32-0.84-0.64-1.26-0.96
			c1.13-0.92,2.13-1.99,3.49-2.64c4.93-2.37,10.89,0.42,12.38,5.67c0.73,2.58,0.05,5.09,0,7.63c-0.02,1.01-0.05,2.03-0.11,3.04
			c-0.24,3.13-0.5,6.26-0.72,9.39c-0.4,5.74-0.85,11.48-1.15,17.22c-0.17,3.25,1.05,6,3.65,8.03C88.61,85.9,89.62,86.52,90.6,87.19z
			"/>
		<path class="st1" d="M119.44,150.21c-2.59-0.02-6.39-2.77-7.2-5.21c-0.82-2.48,0.19-5.22,2.5-6.73c2.1-1.37,4.91-1.16,6.82,0.55
			c1.43,1.27,2.97,2.44,3.42,4.49C125.74,146.88,123.08,150.23,119.44,150.21z"/>
		<path class="st2" d="M123.77,117.51c-1.78-3.97,0.4-8.44,4.43-9.14c0.59-0.1,1.12,0.12,1.68,0.06c1.82,0.83,2.58,2.31,2.43,4.24
			c-0.19,2.55-1.46,4.46-3.74,5.62C126.81,119.19,125.18,118.9,123.77,117.51z"/>
		<path class="st1" d="M71.41,37.78c1.18,0.55,1.94,1.64,2.95,2.4c1.8,1.29,2.87,3.03,3.18,5.22c0.67,2.36-0.15,4.18-1.68,6.02
			c-9.17,10.98-18.24,22.05-27.34,33.08c-2.6,3.15-5.2,6.28-7.94,9.59c0.63-5.34-2.35-8.55-5.97-11.41
			c-0.41-0.33-0.86-0.61-1.29-0.92c3.04-0.63,5.57-2.27,7.94-4.17c3.97-3.2,7.07-7.22,10.38-11.03c3.34-3.85,6.54-7.82,9.74-11.78
			c2.92-3.61,5.82-7.25,8.65-10.93C71.39,42.08,71.58,39.95,71.41,37.78z"/>
		<path class="st1" d="M28.64,86.54c0.04-1,1.1-1.58,1.94-0.95c1.36,1.02,2.65,2.15,3.93,3.28c0.52,0.47,0.51,1.11,0.08,1.65
			c-0.48,0.59-1.11,0.68-1.72,0.19c-1.3-1.04-2.57-2.12-3.85-3.19C28.71,87.28,28.62,86.92,28.64,86.54z"/>
	</g>
</g>
</svg>
