<?xml version="1.0" encoding="utf-8"?>
<!-- Generator: Adobe Illustrator 26.3.1, SVG Export Plug-In . SVG Version: 6.00 Build 0)  -->
<svg version="1.1" id="Capa_1" xmlns="http://www.w3.org/2000/svg" xmlns:xlink="http://www.w3.org/1999/xlink" x="0px" y="0px"
	 viewBox="0 0 72.34 67.23" style="enable-background:new 0 0 72.34 67.23;" xml:space="preserve">
<g>
	<path d="M68.14,27c0,6.99,0,13.99,0,20.98c-0.35,0.25-0.67,0.6-1.06,0.75c-4.65,1.79-9.3,3.55-13.95,5.32
		c-6.27,2.39-12.55,4.77-18.82,7.16c-0.47,0.18-0.92,0.29-1.41,0.02c-5.6-3.08-11.21-6.15-16.81-9.21c-0.48-0.26-0.7-0.65-0.68-1.2
		c0.01-0.51,0-1.01,0-1.57c-0.97,0.14-1.87,0.3-2.78,0.38c-0.38,0.03-0.83,0-1.17-0.18c-1.83-0.96-3.62-1.97-5.44-2.95
		c-0.48-0.26-0.69-0.63-0.69-1.19c0.01-5.36,0.01-10.71,0-16.07c0-0.61,0.24-1,0.8-1.24c1.78-0.78,3.54-1.58,5.33-2.34
		c0.34-0.14,0.75-0.18,1.12-0.15c0.93,0.06,1.85,0.19,2.84,0.3c0-0.3,0-0.52,0-0.74c0-2.45,0.01-4.91-0.01-7.36
		c0-0.63,0.22-1.08,0.74-1.44C21.67,12.34,27.19,8.4,32.7,4.46c0.51-0.36,0.97-0.41,1.53-0.13c7.83,3.88,15.65,7.76,23.49,11.62
		c0.59,0.29,0.85,0.69,0.84,1.35c-0.02,1.9,0.01,3.8-0.02,5.7c-0.01,0.48,0.15,0.67,0.59,0.8c2.66,0.8,5.31,1.6,7.95,2.45
		C67.48,26.38,67.79,26.75,68.14,27z M38.45,49.36c0,2.9,0,5.81,0,8.71c0,0.74,0.11,0.82,0.78,0.57c2.19-0.83,4.38-1.68,6.58-2.5
		c0.43-0.16,0.6-0.39,0.6-0.85c-0.01-5.01-0.01-10.02,0-15.03c0-0.59-0.2-0.79-0.79-0.75c-2.14,0.17-4.28,0.32-6.42,0.44
		c-0.58,0.03-0.76,0.24-0.76,0.82C38.47,43.63,38.45,46.49,38.45,49.36z M49.65,46.86c0,2.31,0,4.62,0,6.93
		c0,0.74,0.13,0.83,0.84,0.56c1.39-0.53,2.78-1.07,4.18-1.58c0.36-0.13,0.51-0.33,0.5-0.72c-0.01-4.17-0.01-8.34,0-12.51
		c0-0.47-0.16-0.67-0.65-0.63c-1.38,0.11-2.77,0.21-4.16,0.28c-0.55,0.03-0.73,0.25-0.73,0.8C49.66,42.28,49.65,44.57,49.65,46.86z
		 M35.53,13.87c0,1.14,0.01,2.29-0.01,3.43c-0.01,0.44,0.15,0.65,0.58,0.78c1.64,0.48,3.28,1.01,4.92,1.51
		c0.61,0.19,0.74,0.09,0.74-0.55c0-2.09-0.01-4.17,0.01-6.26c0-0.41-0.14-0.62-0.52-0.78c-1.66-0.7-3.3-1.42-4.95-2.13
		c-0.62-0.27-0.77-0.17-0.78,0.5C35.52,11.54,35.53,12.71,35.53,13.87z M35.53,29.03c0,1.18,0.01,2.37,0,3.55
		c0,0.42,0.13,0.65,0.59,0.67c1.67,0.08,3.35,0.17,5.02,0.27c0.49,0.03,0.64-0.17,0.64-0.64c-0.01-2.1-0.01-4.21,0-6.31
		c0-0.4-0.16-0.6-0.55-0.66c-1.67-0.29-3.34-0.58-5-0.9c-0.54-0.11-0.71,0.08-0.7,0.59C35.54,26.74,35.53,27.88,35.53,29.03z
		 M31.13,44.14c0-1.14-0.01-2.29,0-3.43c0-0.39-0.11-0.63-0.53-0.66c-1.08-0.09-2.15-0.19-3.23-0.3c-0.44-0.04-0.58,0.16-0.58,0.57
		c0.01,2.08-0.01,4.16,0.02,6.25c0,0.2,0.2,0.52,0.38,0.58c1.04,0.36,2.09,0.69,3.15,0.97c0.64,0.17,0.77,0.04,0.78-0.61
		C31.14,46.39,31.13,45.26,31.13,44.14z M31.13,14.46c0-1.14,0.01-2.29,0-3.43c-0.01-0.64-0.2-0.74-0.74-0.41
		c-1.06,0.65-2.13,1.3-3.16,1.99c-0.21,0.14-0.4,0.48-0.4,0.73c-0.03,2.04-0.02,4.09-0.02,6.13c0,0.66,0.16,0.75,0.78,0.48
		c1.01-0.44,2.01-0.91,3.03-1.33c0.41-0.17,0.53-0.42,0.52-0.84C31.11,16.67,31.13,15.56,31.13,14.46z M31.13,29.32
		c0-1.14-0.01-2.29,0.01-3.43c0.01-0.52-0.17-0.72-0.69-0.57c-1.04,0.29-2.09,0.56-3.13,0.82c-0.35,0.09-0.51,0.26-0.51,0.64
		c0.01,2.08,0.01,4.16,0,6.25c0,0.45,0.19,0.63,0.64,0.59c1.02-0.1,2.03-0.19,3.05-0.25c0.5-0.03,0.66-0.25,0.65-0.74
		C31.11,31.52,31.13,30.42,31.13,29.32z M45.73,17.59c0,0.96,0.01,1.92-0.01,2.88c-0.01,0.42,0.15,0.64,0.55,0.75
		c1.11,0.32,2.22,0.68,3.33,1.01c0.58,0.17,0.72,0.07,0.72-0.57c0.01-1.71-0.01-3.43,0.01-5.14c0-0.4-0.12-0.64-0.5-0.8
		c-1.13-0.47-2.24-0.97-3.37-1.45c-0.57-0.24-0.73-0.13-0.73,0.51C45.72,15.71,45.73,16.65,45.73,17.59z M50.33,30.82
		c0-0.9,0-1.79,0-2.69c0-0.35-0.11-0.57-0.5-0.64c-1.12-0.19-2.25-0.39-3.37-0.62c-0.53-0.11-0.75,0.05-0.74,0.61
		c0.02,1.88,0.02,3.75,0,5.63c-0.01,0.53,0.22,0.72,0.72,0.74c1.08,0.06,2.16,0.13,3.23,0.23c0.49,0.04,0.66-0.18,0.66-0.64
		C50.32,32.57,50.33,31.7,50.33,30.82z M24.4,18.11c0-0.98,0.01-1.96,0-2.94c-0.01-0.56-0.21-0.68-0.68-0.39
		c-0.75,0.45-1.5,0.91-2.22,1.41c-0.18,0.12-0.33,0.42-0.33,0.64c-0.03,1.74-0.02,3.47-0.01,5.21c0,0.59,0.16,0.68,0.72,0.44
		c0.68-0.29,1.34-0.61,2.02-0.88c0.37-0.15,0.53-0.38,0.52-0.79C24.38,19.91,24.4,19.01,24.4,18.11z M24.39,42.89
		c0-0.94-0.01-1.88,0.01-2.82c0.01-0.45-0.15-0.67-0.63-0.69c-0.65-0.03-1.3-0.11-1.95-0.19c-0.46-0.06-0.69,0.08-0.68,0.58
		c0.01,1.73,0.01,3.47,0,5.21c0,0.38,0.15,0.56,0.5,0.65c0.69,0.18,1.38,0.35,2.06,0.57c0.54,0.17,0.71-0.04,0.7-0.55
		C24.38,44.73,24.39,43.81,24.39,42.89z M24.39,30.45c0-0.96,0-1.92,0-2.88c0-0.45-0.15-0.64-0.64-0.5
		c-0.7,0.21-1.43,0.34-2.12,0.58c-0.2,0.07-0.46,0.37-0.47,0.57c-0.04,1.77-0.02,3.55-0.02,5.33c0,0.44,0.22,0.57,0.62,0.52
		c0.69-0.07,1.38-0.15,2.07-0.18c0.43-0.02,0.56-0.23,0.56-0.62C24.38,32.33,24.39,31.39,24.39,30.45z M56.59,21.42
		c0-0.75,0.04-1.51-0.02-2.26c-0.02-0.25-0.22-0.58-0.43-0.69c-0.8-0.4-1.64-0.72-2.46-1.08c-0.44-0.19-0.66-0.08-0.66,0.42
		c0,1.67-0.01,3.34,0.02,5.01c0,0.2,0.21,0.5,0.4,0.57c0.82,0.3,1.67,0.53,2.5,0.79c0.45,0.14,0.65-0.03,0.65-0.5
		C56.58,22.93,56.59,22.17,56.59,21.42z M56.59,31.53c0-0.75-0.01-1.51,0-2.26c0.01-0.4-0.17-0.59-0.56-0.66
		c-0.82-0.14-1.65-0.28-2.47-0.44c-0.37-0.07-0.55,0.06-0.55,0.43c0,1.71-0.01,3.43,0.02,5.14c0,0.17,0.29,0.45,0.46,0.47
		c0.81,0.09,1.63,0.09,2.44,0.16c0.5,0.04,0.65-0.18,0.64-0.64C56.58,33,56.59,32.27,56.59,31.53z M19.56,20.69
		c0-0.84,0.01-1.67,0-2.51c-0.01-0.52-0.21-0.65-0.64-0.4c-0.57,0.32-1.13,0.66-1.66,1.04c-0.15,0.11-0.27,0.36-0.28,0.55
		c-0.02,1.53-0.01,3.06-0.01,4.59c0,0.47,0.22,0.58,0.62,0.41c0.51-0.22,1-0.46,1.51-0.66c0.37-0.14,0.47-0.38,0.46-0.76
		C19.54,22.2,19.56,21.44,19.56,20.69z M19.56,41.98c0-0.41,0-0.82,0-1.22c-0.03-2.22,0.29-1.66-1.84-1.97
		c-0.55-0.08-0.79,0.09-0.76,0.68c0.04,0.98,0.01,1.96,0.01,2.94c0,1.96,0,1.96,1.9,2.44c0.02,0,0.04,0.02,0.06,0.02
		c0.45,0.14,0.65-0.03,0.64-0.5C19.55,43.57,19.56,42.78,19.56,41.98z M19.56,31.35c0-0.84-0.01-1.68,0-2.51
		c0.01-0.45-0.19-0.59-0.61-0.49c-0.53,0.14-1.08,0.25-1.59,0.43c-0.16,0.06-0.37,0.3-0.37,0.46c-0.03,1.57-0.02,3.15-0.02,4.72
		c0,0.34,0.17,0.48,0.5,0.45c0.49-0.04,0.98-0.09,1.47-0.11c0.46-0.02,0.65-0.22,0.63-0.69C19.54,32.86,19.56,32.1,19.56,31.35z
		 M59.63,41.18c0,0.69,0.01,1.39,0,2.08c0,0.42,0.17,0.61,0.6,0.52c0.56-0.12,1.12-0.24,1.68-0.33c0.34-0.06,0.49-0.23,0.49-0.58
		c-0.01-1.31-0.01-2.61,0-3.92c0-0.39-0.18-0.56-0.56-0.53c-0.57,0.04-1.14,0.09-1.71,0.12c-0.37,0.02-0.49,0.22-0.49,0.56
		C59.63,39.79,59.63,40.49,59.63,41.18z M59.62,31.97c0,0.51,0,1.02,0,1.53c0,1.07,0,1.07,1.04,1.13c0.39,0.03,0.77,0.05,1.16,0.08
		c0.39,0.03,0.57-0.14,0.56-0.53c-0.01-1.31-0.01-2.61,0-3.92c0-0.35-0.13-0.52-0.48-0.58c-0.54-0.09-1.09-0.17-1.62-0.3
		c-0.52-0.13-0.67,0.09-0.66,0.56C59.63,30.63,59.62,31.3,59.62,31.97z M63.61,40.69c0,0.61,0,1.22,0,1.83
		c0,0.35,0.13,0.56,0.51,0.5c0.48-0.08,0.97-0.15,1.43-0.3c0.17-0.06,0.38-0.32,0.38-0.5c0.03-1.18,0.01-2.36,0.02-3.55
		c0-0.37-0.18-0.52-0.53-0.5c-0.43,0.03-0.85,0.08-1.28,0.1c-0.39,0.01-0.54,0.21-0.53,0.58C63.62,39.47,63.61,40.08,63.61,40.69z
		 M63.61,32.48c0,0.2,0,0.41,0,0.61c0.01,2.13-0.21,1.63,1.76,1.82c0.42,0.04,0.6-0.14,0.59-0.56c-0.01-0.78,0-1.55,0-2.33
		c0-1.76,0-1.75-1.75-1.87c-0.43-0.03-0.6,0.13-0.6,0.55C63.62,31.3,63.61,31.89,63.61,32.48z M11.31,32.68c0-0.55,0-1.1,0-1.65
		c0-0.43-0.15-0.67-0.64-0.51c-0.35,0.11-0.71,0.2-1.06,0.28c-0.37,0.08-0.49,0.29-0.48,0.66c0.02,0.69,0.01,1.39,0,2.08
		c-0.02,1.97-0.02,1.51,1.63,1.45c0.39-0.02,0.55-0.21,0.55-0.58C11.31,33.83,11.31,33.26,11.31,32.68z M11.31,40.44
		c0-0.57,0.03-1.14-0.02-1.71c-0.02-0.2-0.23-0.54-0.38-0.56c-0.56-0.05-1.14-0.01-1.7,0.03c-0.04,0-0.07,0.3-0.07,0.46
		c-0.01,0.67,0,1.34,0,2.02c0,1.56,0,1.56,1.51,1.89c0.02,0,0.04,0.01,0.06,0.01c0.42,0.11,0.62-0.06,0.61-0.49
		C11.31,41.54,11.31,40.99,11.31,40.44z M8.08,33.25C8.08,33.25,8.08,33.25,8.08,33.25c0-0.49,0-0.98,0-1.46
		c-0.01-0.4-0.19-0.56-0.59-0.43c-0.19,0.06-0.39,0.13-0.59,0.16c-0.46,0.06-0.6,0.32-0.58,0.76c0.02,0.63,0.01,1.26,0.01,1.89
		c0,1.2,0,1.18,1.18,1.08c0.45-0.04,0.6-0.24,0.59-0.66C8.07,34.14,8.08,33.7,8.08,33.25z M8.08,39.82
		C8.08,39.82,8.08,39.82,8.08,39.82c0-0.29,0-0.57,0-0.86c0-1.13,0-1.13-1.13-1.2c-0.02,0-0.04-0.01-0.06-0.01
		c-0.39-0.05-0.58,0.12-0.57,0.52c0,0.88-0.02,1.76,0.02,2.64c0.01,0.19,0.15,0.48,0.3,0.52c0.41,0.14,0.86,0.18,1.29,0.23
		c0.04,0,0.14-0.27,0.15-0.42C8.09,40.76,8.08,40.29,8.08,39.82z"/>
</g>
</svg>
